<?xml version="1.0" encoding="UTF-8" standalone="no"?>
<!-- Created with Inkscape (http://www.inkscape.org/) -->

<svg
   width="210mm"
   height="297mm"
   viewBox="0 0 210 297"
   version="1.1"
   id="svg1"
   xmlns="http://www.w3.org/2000/svg"
   xmlns:svg="http://www.w3.org/2000/svg">
  <defs
     id="defs1" />
  <g
     id="layer1"
     style="display:inline">
    <path
       id="path46"
       style="fill:#ff0000;fill-opacity:1;stroke-width:0.264583"
       d="m 93.850602,32.834688 c 0.04336,0.06798 0.07568,0.138943 0.0987,0.21239 0.08474,-0.0142 0.169049,-0.03079 0.253215,-0.04806 z m -0.923458,3.187919 c -0.04617,0.07632 -0.09242,0.152643 -0.139526,0.22841 0.01426,-0.01846 0.02922,-0.03624 0.04341,-0.05478 0.03383,-0.05815 0.07049,-0.114478 0.108004,-0.170015 -0.0041,-0.0011 -0.0078,-0.0025 -0.01189,-0.0036 z m -4.062801,9.000485 c -0.01101,0.0069 -0.02207,0.01377 -0.03307,0.02067 l 0.01085,0.0057 c 0.0075,-0.0087 0.01477,-0.01761 0.02222,-0.02636 z" />
    <path
       d="M 146.77584,63.119451 60.099667,63.119668 103.34405,169.1246 Z"
       style="fill:#ff1600;stroke-width:0.299431"
       id="path68" />
    <circle
       style="fill:#ff1600;fill-opacity:1;stroke-width:0.264999;stroke-dasharray:none"
       id="path69"
       cx="103.13577"
       cy="212.46268"
       r="14.345383" />
  </g>
</svg>
